<?xml version="1.0" encoding="UTF-8" standalone="no"?>
<svg
   xmlns:dc="http://purl.org/dc/elements/1.1/"
   xmlns:cc="http://creativecommons.org/ns#"
   xmlns:rdf="http://www.w3.org/1999/02/22-rdf-syntax-ns#"
   xmlns:svg="http://www.w3.org/2000/svg"
   xmlns="http://www.w3.org/2000/svg"
   version="1.1"
   id="svg3861"
   xml:space="preserve"
   width="32"
   height="32"
   viewBox="0 0 32 32"><metadata
     id="metadata3867"><rdf:RDF><cc:Work
         rdf:about=""><dc:format>image/svg+xml</dc:format><dc:type
           rdf:resource="http://purl.org/dc/dcmitype/StillImage" /><dc:title></dc:title></cc:Work></rdf:RDF></metadata><defs
     id="defs3865"><clipPath
       clipPathUnits="userSpaceOnUse"
       id="clipPath3877"><path
         d="M 0,1567.127 H 1560.637 V 0 H 0 Z"
         id="path3875" /></clipPath></defs><g
     id="g3869"
     transform="matrix(0.04502922,0,0,-0.04502922,-18.438529,59.849926)"><g
       id="g3871"><g
         id="g3873"
         clip-path="url(#clipPath3877)"><g
           id="g3879"
           transform="translate(986.2234,818.9683)"><path
             d="m 0,0 c -75.72,-35.88 -161.365,-25.672 -225.389,19.23 -72.324,-31.545 -141.013,-56.576 -197.909,-71.903 -0.128,-0.035 -0.25,-0.066 -0.377,-0.1 86.695,-99.281 231.864,-133.353 356.852,-74.126 C 26.211,-82.814 86.301,2.663 101.911,97.083 80.012,56.06 45.25,21.443 0,0"
             style="fill:#dc322f;fill-opacity:1;fill-rule:nonzero;stroke:none"
             id="path3881" /></g><g
           id="g3883"
           transform="translate(462.4304,829.2241)"><path
             d="M 0,0 C 6.707,8.363 19.316,21.578 41.14,39.939 44.93,28.666 49.403,17.491 54.623,6.478 54.652,6.413 54.686,6.351 54.716,6.287 26.173,0.289 9.383,-0.517 0,0 m 651.611,279 c -8.663,9.474 -23.361,10.127 -32.83,1.472 -25.998,-23.768 -66,-51.988 -114.677,-81.441 -11.948,12.294 -28.65,19.943 -47.147,19.943 -36.315,0 -65.753,-29.439 -65.753,-65.753 0,-5.395 0.664,-10.632 1.889,-15.649 -17.518,-8.931 -35.486,-17.776 -53.773,-26.441 -33.203,-15.734 -66.287,-30.337 -98.339,-43.485 -6.1,9.092 -11.617,18.736 -16.448,28.929 -53.137,112.139 -5.307,246.121 106.831,299.259 34.274,16.241 70.584,23.005 106.007,21.429 -74.756,29.139 -160.888,28.631 -239.117,-8.439 C 74.632,350.245 9.163,218.589 28.971,89.964 -54.849,23.866 -58.534,-2.795 -49.612,-21.628 c 7.913,-16.699 25.611,-24.994 54.989,-24.994 23.742,0 55.114,5.417 95.118,16.194 72.675,19.58 164.558,54.936 258.725,99.558 20.717,9.817 40.946,19.804 60.558,29.863 10.576,-7.265 23.378,-11.525 37.179,-11.525 36.314,0 65.752,29.439 65.752,65.753 0,0.883 -0.032,1.758 -0.065,2.633 53.819,32.245 98.061,63.408 127.496,90.315 9.472,8.661 10.131,23.359 1.471,32.831"
             style="fill:#dc322f;fill-opacity:1;fill-rule:nonzero;stroke:none"
             id="path3885" /></g></g></g></g></svg>